FFmpeg version SVN-r25716, Copyright (c) 2000-2010 the FFmpeg developers  built on Nov 10 2010 12:23:18 with gcc 4.1.2 20080704 (Red Hat 4.1.2-48)  configuration: --enable-libmp3lame --enable-shared --disable-mmx --arch=x86_64  libavutil     50.33. 0 / 50.33. 0  libavcore      0.12. 1 /  0.12. 1  libavcodec    52.94. 4 / 52.94. 4  libavformat   52.84. 0 / 52.84. 0  libavdevice   52. 2. 2 / 52. 2. 2  libavfilter    1.59. 0 /  1.59. 0  libswscale     0.12. 0 /  0.12. 0Seems stream 0 codec frame rate differs from container frame rate: 180000.00 (180000/1) -> 29.97 (30000/1001)Input #0, mov,mp4,m4a,3gp,3g2,mj2, from '/RAID10/data/converted_video_files/7661.mov':  Metadata:    major_brand     : qt      minor_version   : 537199360    compatible_brands: qt    Duration: 00:01:06.69, start: 0.000000, bitrate: 763 kb/s    Stream #0.0(eng): Video: h264, yuv420p, 448x500, 759 kb/s, 29.97 fps, 29.97 tbr, 90k tbn, 180k tbc[buffer @ 0x7b064d0] w:448 h:500 pixfmt:yuv420pOutput #0, flv, to '/RAID10/data/converted_video_files/7661.flv':  Metadata:    encoder         : Lavf52.84.0    Stream #0.0(eng): Video: flv, yuv420p, 448x500, q=2-31, 600 kb/s, 1k tbn, 24 tbcStream mapping:  Stream #0.0 -> #0.0Press [q] to stop encodingframe=   51 fps=  0 q=11.8 size=     385kB time=2.12 bitrate=1482.4kbits/s dup=0 drop=12    frame=  106 fps=105 q=12.8 size=     554kB time=4.42 bitrate=1028.2kbits/s dup=0 drop=26    frame=  162 fps=107 q=12.4 size=     735kB time=6.75 bitrate= 892.4kbits/s dup=0 drop=40    frame=  219 fps=108 q=13.1 size=     920kB time=9.12 bitrate= 825.8kbits/s dup=0 drop=54    frame=  278 fps=110 q=12.4 size=    1103kB time=11.58 bitrate= 779.8kbits/s dup=0 drop=69    frame=  336 fps=111 q=13.1 size=    1263kB time=14.00 bitrate= 739.3kbits/s dup=0 drop=83    frame=  392 fps=111 q=13.8 size=    1449kB time=16.33 bitrate= 726.6kbits/s dup=0 drop=97    frame=  447 fps=111 q=11.9 size=    1620kB time=18.62 bitrate= 712.6kbits/s dup=0 drop=111    frame=  498 fps=110 q=15.8 size=    1769kB time=20.75 bitrate= 698.3kbits/s dup=0 drop=123    frame=  544 fps=108 q=15.6 size=    1908kB time=22.67 bitrate= 689.5kbits/s dup=0 drop=135    frame=  590 fps=106 q=16.2 size=    2049kB time=24.58 bitrate= 682.7kbits/s dup=0 drop=146    frame=  637 fps=105 q=12.7 size=    2190kB time=26.54 bitrate= 676.0kbits/s dup=0 drop=158    frame=  698 fps=106 q=11.4 size=    2353kB time=29.08 bitrate= 662.9kbits/s dup=0 drop=173    frame=  764 fps=108 q=11.8 size=    2532kB time=31.83 bitrate= 651.6kbits/s dup=0 drop=190    frame=  832 fps=110 q=10.5 size=    2732kB time=34.67 bitrate= 645.7kbits/s dup=0 drop=206    frame=  903 fps=112 q=7.4 size=    2919kB time=37.62 bitrate= 635.6kbits/s dup=0 drop=224    frame=  973 fps=113 q=5.4 size=    3118kB time=40.54 bitrate= 630.1kbits/s dup=0 drop=242    frame= 1056 fps=116 q=2.0 size=    3351kB time=44.00 bitrate= 623.9kbits/s dup=0 drop=262    frame= 1169 fps=122 q=4.2 size=    3723kB time=48.71 bitrate= 626.1kbits/s dup=0 drop=290    frame= 1249 fps=124 q=4.8 size=    3980kB time=52.04 bitrate= 626.6kbits/s dup=0 drop=310    frame= 1323 fps=125 q=6.5 size=    4213kB time=55.12 bitrate= 626.1kbits/s dup=0 drop=329    frame= 1399 fps=126 q=6.9 size=    4441kB time=58.29 bitrate= 624.1kbits/s dup=0 drop=348    frame= 1482 fps=128 q=2.0 size=    4704kB time=61.75 bitrate= 624.0kbits/s dup=0 drop=368    frame= 1597 fps=132 q=1.6 size=    5069kB time=66.54 bitrate= 624.0kbits/s dup=0 drop=397    frame= 1601 fps=132 q=2.0 Lsize=    5070kB time=66.71 bitrate= 622.6kbits/s dup=0 drop=398    video:5044kB audio:0kB global headers:0kB muxing overhead 0.499970%